<svg width="393" height="87" viewBox="0 0 393 87" fill="none" xmlns="http://www.w3.org/2000/svg">
<rect y="7" width="16" height="44" fill="#3FDDFA"/>
<path fill-rule="evenodd" clip-rule="evenodd" d="M16 28.3063C6.47152 32.9657 0 42.0744 0 52.5484C0 67.7629 13.6553 80.0968 30.5 80.0968C47.3447 80.0968 61 67.7629 61 52.5484C61 42.0744 54.5285 32.9657 45 28.3063V51H44.9577C44.9857 51.33 45 51.6635 45 52C45 59.1797 38.5081 65 30.5 65C22.4919 65 16 59.1797 16 52C16 51.6635 16.0143 51.33 16.0423 51H16V28.3063Z" fill="#3FDDFA"/>
<rect x="45" y="7" width="16" height="44" fill="#3FDDFA"/>
<rect x="222" y="7" width="16" height="44" fill="#3FDDFA"/>
<path fill-rule="evenodd" clip-rule="evenodd" d="M238 28.3063C228.472 32.9657 222 42.0744 222 52.5484C222 67.7629 235.655 80.0968 252.5 80.0968C269.345 80.0968 283 67.7629 283 52.5484C283 42.0744 276.528 32.9657 267 28.3063V51H266.958C266.986 51.33 267 51.6635 267 52C267 59.1797 260.508 65 252.5 65C244.492 65 238 59.1797 238 52C238 51.6635 238.014 51.33 238.042 51H238V28.3063Z" fill="#3FDDFA"/>
<rect x="267" y="7" width="16" height="44" fill="#3FDDFA"/>
<rect x="89" y="7" width="14" height="72" fill="#3FDDFA"/>
<rect x="136" y="7" width="15" height="35" fill="#3FDDFA"/>
<path d="M136 26H151V61C144.35 57.776 139.092 52.2551 136.195 45.4567L136 45V26Z" fill="#3FDDFA"/>
<rect width="14" height="16" transform="matrix(1 0 0 -1 371 79)" fill="#3FDDFA"/>
<path d="M371 69H385V29C378.784 32.6904 374.072 38.4585 371.696 45.2859L371 47.2857V69Z" fill="#3FDDFA"/>
<rect x="179" y="7" width="16" height="72" fill="#3FDDFA"/>
<rect x="311" y="7" width="14" height="72" fill="#3FDDFA"/>
<path d="M316.5 6.99999L328 6.99999L348 51L348 71L343 71L316.5 6.99999Z" fill="#3FDDFA"/>
<path d="M384 7.00001L370.5 7L348 51L348 71L353 71L384 7.00001Z" fill="#3FDDFA"/>
<path d="M89 8.49999L103 7L151 79.0001L134 79L89 8.49999Z" fill="#3FDDFA"/>
</svg>
