<svg width="1389" height="541" viewBox="0 0 1389 541" fill="none" xmlns="http://www.w3.org/2000/svg">
<rect x="100" y="100.275" width="49.4526" height="135.995" fill="#3FDDFA"/>
<path fill-rule="evenodd" clip-rule="evenodd" d="M149.453 166.128C120.002 180.529 100 208.682 100 241.055C100 288.08 142.206 326.201 194.269 326.201C246.332 326.201 288.538 288.08 288.538 241.055C288.538 208.682 268.536 180.529 239.086 166.128V236.269H238.955C239.041 237.289 239.086 238.32 239.086 239.36C239.086 261.551 219.021 279.54 194.269 279.54C169.518 279.54 149.453 261.551 149.453 239.36C149.453 238.32 149.497 237.289 149.583 236.269H149.453V166.128Z" fill="#3FDDFA"/>
<rect x="239.085" y="100.275" width="49.4526" height="135.995" fill="#3FDDFA"/>
<rect x="786.155" y="100.275" width="49.4526" height="135.995" fill="#3FDDFA"/>
<path fill-rule="evenodd" clip-rule="evenodd" d="M835.607 166.128C806.157 180.529 786.155 208.682 786.155 241.055C786.155 288.08 828.36 326.201 880.424 326.201C932.487 326.201 974.693 288.08 974.693 241.055C974.693 208.682 954.691 180.529 925.24 166.128V236.269H925.109C925.196 237.289 925.24 238.32 925.24 239.36C925.24 261.55 905.175 279.54 880.424 279.54C855.672 279.54 835.607 261.55 835.607 239.36C835.607 238.32 835.651 237.289 835.738 236.269H835.607V166.128Z" fill="#3FDDFA"/>
<rect x="925.24" y="100.275" width="49.4526" height="135.995" fill="#3FDDFA"/>
<rect x="375.08" y="100.275" width="43.271" height="222.537" fill="#3FDDFA"/>
<rect x="520.347" y="100.275" width="46.3618" height="108.178" fill="#3FDDFA"/>
<path d="M520.347 158.999H566.709V267.177C546.156 257.212 529.903 240.148 520.949 219.136L520.347 217.724V158.999Z" fill="#3FDDFA"/>
<rect width="43.271" height="49.4526" transform="matrix(1 0 0 -1 1245.68 322.811)" fill="#3FDDFA"/>
<path d="M1245.68 291.904H1288.95V168.272C1269.74 179.679 1255.18 197.507 1247.83 218.608L1245.68 224.79V291.904Z" fill="#3FDDFA"/>
<rect x="653.251" y="100.275" width="49.4526" height="222.537" fill="#3FDDFA"/>
<rect x="1061.23" y="100.275" width="43.271" height="222.537" fill="#3FDDFA"/>
<path d="M1078.23 100.275L1113.78 100.275L1175.59 236.269L1175.59 298.085L1160.14 298.085L1078.23 100.275Z" fill="#3FDDFA"/>
<path d="M1285.86 100.275L1244.14 100.275L1174.59 236.27L1174.59 298.085L1190.05 298.085L1285.86 100.275Z" fill="#3FDDFA"/>
<path d="M375.08 104.911L418.351 100.274L566.709 322.811L514.166 322.811L375.08 104.911Z" fill="#3FDDFA"/>
<rect x="1041.84" y="379.138" width="46.0911" height="5.542" rx="2.771" fill="#3FDDFA"/>
<rect x="1041.84" y="433.866" width="46.0911" height="5.542" rx="2.771" fill="#3FDDFA"/>
<rect x="1041.84" y="406.155" width="46.0911" height="5.542" rx="2.771" fill="#3FDDFA"/>
<path fill-rule="evenodd" clip-rule="evenodd" d="M422.956 439.407C430.583 439.375 437.642 437.271 443.408 433.715C443.409 433.715 443.409 433.714 443.41 433.714L439.796 429.402C434.96 432.672 428.931 434.612 422.393 434.612C414.67 434.612 407.656 431.904 402.482 427.495C396.713 422.834 393.097 416.14 393.097 408.702C393.097 394.619 406.063 383.202 422.057 383.202C423.478 383.202 424.875 383.292 426.241 383.466C431.34 384.073 436.018 385.868 439.911 388.529L443.422 384.473C441.138 382.942 438.665 381.663 436.064 380.658C431.962 379.231 427.479 378.445 422.782 378.445C403.387 378.445 387.63 391.847 387.348 408.472C387.435 414.018 389.237 419.475 392.568 424.261C395.984 429.169 400.874 433.179 406.69 435.842C411.744 438.156 417.325 439.374 422.956 439.407Z" fill="#3FDDFA"/>
<rect x="239.085" y="379.138" width="52.2366" height="5.542" rx="2.771" fill="#3FDDFA"/>
<rect x="315.904" y="379.138" width="46.0911" height="5.542" rx="2.771" fill="#3FDDFA"/>
<rect x="315.904" y="433.866" width="46.0911" height="5.542" rx="2.771" fill="#3FDDFA"/>
<rect x="315.904" y="406.155" width="46.0911" height="5.542" rx="2.771" fill="#3FDDFA"/>
<rect x="262.131" y="439.407" width="57.4982" height="6.14549" rx="3.07274" transform="rotate(-90 262.131 439.407)" fill="#3FDDFA"/>
<rect x="474.918" y="439.407" width="60.2692" height="6.14549" rx="3.07274" transform="rotate(-90 474.918 439.407)" fill="#3FDDFA"/>
<rect x="567.101" y="439.407" width="60.2692" height="6.14549" rx="3.07274" transform="rotate(-90 567.101 439.407)" fill="#3FDDFA"/>
<rect width="77.8323" height="5.91887" rx="2.95944" transform="matrix(0.661567 0.749886 -0.812511 0.582946 571.142 378.445)" fill="#3FDDFA"/>
<rect x="615.497" y="439.407" width="60.2692" height="6.14549" rx="3.07274" transform="rotate(-90 615.497 439.407)" fill="#3FDDFA"/>
<rect x="750.697" y="439.407" width="60.2692" height="6.14549" rx="3.07274" transform="rotate(-90 750.697 439.407)" fill="#3FDDFA"/>
<rect x="1001.13" y="439.407" width="60.2692" height="6.14549" rx="3.07274" transform="rotate(-90 1001.13 439.407)" fill="#3FDDFA"/>
<rect x="958.107" y="434.558" width="25.6317" height="6.14549" rx="3.07274" transform="rotate(-90 958.107 434.558)" fill="#3FDDFA"/>
<rect x="474.918" y="406.155" width="55.3094" height="5.542" rx="2.771" fill="#3FDDFA"/>
<rect x="750.697" y="433.866" width="44.5548" height="5.542" rx="2.771" fill="#3FDDFA"/>
<rect x="524.083" y="439.407" width="60.2692" height="6.14549" rx="3.07274" transform="rotate(-90 524.083 439.407)" fill="#3FDDFA"/>
<ellipse cx="441.31" cy="386.239" rx="2.8807" ry="2.59781" fill="#3FDDFA"/>
<ellipse cx="441.426" cy="431.683" rx="2.99592" ry="2.70172" fill="#3FDDFA"/>
<path fill-rule="evenodd" clip-rule="evenodd" d="M942.2 440.101C949.846 440.078 956.922 437.971 962.7 434.408L959.086 430.096C954.251 433.366 948.221 435.306 941.684 435.306C933.957 435.306 926.94 432.596 921.765 428.183C916.001 423.522 912.387 416.83 912.387 409.396C912.387 395.313 925.353 383.896 941.347 383.896C942.781 383.896 944.19 383.988 945.568 384.165C950.653 384.775 955.318 386.568 959.202 389.223L962.713 385.167C960.427 383.635 957.953 382.356 955.35 381.35C951.249 379.924 946.767 379.139 942.072 379.139C922.686 379.139 906.937 392.527 906.638 409.139C906.719 414.695 908.522 420.161 911.858 424.955C915.275 429.864 920.164 433.873 925.98 436.536C931.021 438.844 936.585 440.061 942.2 440.101Z" fill="#3FDDFA"/>
<ellipse cx="960.6" cy="386.932" rx="2.8807" ry="2.59781" fill="#3FDDFA"/>
<ellipse cx="960.715" cy="432.376" rx="2.99592" ry="2.70172" fill="#3FDDFA"/>
<path fill-rule="evenodd" clip-rule="evenodd" d="M686.169 439.407C704.837 439.407 719.969 425.761 719.969 408.926C719.969 392.092 704.837 378.445 686.169 378.445C667.502 378.445 652.369 392.092 652.369 408.926C652.369 425.761 667.502 439.407 686.169 439.407ZM686.554 433.865C702.039 433.865 714.592 422.544 714.592 408.579C714.592 394.615 702.039 383.294 686.554 383.294C671.068 383.294 658.515 394.615 658.515 408.579C658.515 422.544 671.068 433.865 686.554 433.865Z" fill="#3FDDFA"/>
<path fill-rule="evenodd" clip-rule="evenodd" d="M847.489 439.407C866.156 439.407 881.289 425.761 881.289 408.926C881.289 392.092 866.156 378.445 847.489 378.445C828.821 378.445 813.688 392.092 813.688 408.926C813.688 425.761 828.821 439.407 847.489 439.407ZM847.873 433.865C863.358 433.865 875.911 422.544 875.911 408.579C875.911 394.615 863.358 383.294 847.873 383.294C832.387 383.294 819.834 394.615 819.834 408.579C819.834 422.544 832.387 433.865 847.873 433.865Z" fill="#3FDDFA"/>
<path d="M1112.7 430.742C1113.25 429.688 1114.53 429.255 1115.6 429.763L1118.71 431.236L1124.13 433.279L1127.62 434.3L1131.88 434.981L1136.14 435.322H1139.26C1140.27 435.322 1141.28 435.248 1142.29 435.101L1142.7 435.04C1144.51 434.775 1146.27 434.239 1147.91 433.449L1148.27 433.276C1149.21 432.825 1150.1 432.274 1150.92 431.632L1151.64 431.072C1152.65 430.281 1153.5 429.299 1154.13 428.182L1154.19 428.082C1154.54 427.463 1154.82 426.803 1155.01 426.117C1155.33 425 1155.43 423.832 1155.3 422.678L1155.29 422.64C1155.17 421.569 1154.86 420.528 1154.37 419.566L1154.18 419.19C1153.77 418.372 1153.23 417.622 1152.59 416.966C1151.7 416.047 1150.62 415.331 1149.42 414.864L1147.75 414.21L1143.88 413.189L1139.23 412.508L1134.59 411.486L1130.33 410.465L1127.62 409.443C1125.81 408.764 1124.07 407.932 1122.41 406.957L1121.42 406.379L1119.33 404.803C1118.92 404.492 1118.53 404.152 1118.17 403.786C1116.75 402.364 1115.76 400.58 1115.29 398.629L1115.23 398.377L1115.03 396.583C1114.91 395.4 1114.93 394.206 1115.09 393.028L1115.13 392.802C1115.45 390.54 1116.34 388.398 1117.72 386.578C1118.88 385.041 1120.37 383.774 1122.06 382.861L1123.29 382.202C1125.38 381.077 1127.66 380.337 1130.02 380.019L1132.81 379.64C1135.28 379.307 1137.77 379.234 1140.26 379.424L1141 379.481C1143.94 379.706 1146.86 380.238 1149.69 381.07L1150.07 381.181L1155.01 383.208C1155.56 383.435 1155.99 383.888 1156.19 384.452C1156.73 385.998 1155.37 387.538 1153.77 387.186L1152.78 386.97L1149.69 385.949L1147.17 385.097C1144.99 384.307 1142.7 383.841 1140.38 383.713L1137.68 383.565H1135.71C1134.45 383.565 1133.19 383.687 1131.95 383.93C1130.87 384.14 1129.81 384.44 1128.79 384.827L1127.62 385.267C1125.82 386.172 1124.14 387.303 1122.63 388.633L1122.58 388.673L1121.54 389.748C1120.7 390.607 1120.09 391.66 1119.76 392.813C1119.58 393.454 1119.49 394.119 1119.49 394.786V395.622C1119.49 396.655 1119.68 397.681 1120.04 398.647C1120.44 399.705 1121.06 400.678 1121.83 401.5C1122.33 402.024 1122.89 402.487 1123.51 402.871L1125.29 403.995L1128.01 405.357L1131.1 406.719L1134.59 407.741L1139.23 408.762L1143.88 409.443L1148.14 410.124L1149.53 410.493C1151.17 410.925 1152.71 411.652 1154.09 412.641L1154.19 412.713C1155.56 413.702 1156.73 414.946 1157.64 416.378C1158.01 416.975 1158.34 417.601 1158.62 418.251L1158.91 418.929C1159.21 419.641 1159.45 420.378 1159.62 421.133C1159.96 422.635 1160.04 424.186 1159.83 425.713L1159.81 425.88C1159.52 428.056 1158.7 430.127 1157.43 431.917L1157.36 432C1155.87 433.747 1154.08 435.219 1152.09 436.348C1150.49 437.248 1148.78 437.922 1147.01 438.348L1145.43 438.727L1145.37 438.735C1142.57 439.183 1139.74 439.408 1136.91 439.408H1136.39C1133.9 439.408 1131.42 439.18 1128.97 438.727L1125.29 438.046L1122.2 437.194C1120.14 436.628 1118.12 435.911 1116.16 435.05L1115.23 434.641L1113.55 433.654C1112.54 433.062 1112.17 431.782 1112.7 430.742Z" fill="#3FDDFA"/>
<g filter="url(#filter0_f_58_44073)">
<rect x="100" y="100.275" width="49.4526" height="135.995" fill="#3FDDFA"/>
<path fill-rule="evenodd" clip-rule="evenodd" d="M149.453 166.128C120.002 180.529 100 208.682 100 241.055C100 288.08 142.206 326.201 194.269 326.201C246.332 326.201 288.538 288.08 288.538 241.055C288.538 208.682 268.536 180.529 239.086 166.128V236.269H238.955C239.041 237.289 239.086 238.32 239.086 239.36C239.086 261.551 219.021 279.54 194.269 279.54C169.518 279.54 149.453 261.551 149.453 239.36C149.453 238.32 149.497 237.289 149.583 236.269H149.453V166.128Z" fill="#3FDDFA"/>
<rect x="239.085" y="100.275" width="49.4526" height="135.995" fill="#3FDDFA"/>
<rect x="786.155" y="100.275" width="49.4526" height="135.995" fill="#3FDDFA"/>
<path fill-rule="evenodd" clip-rule="evenodd" d="M835.607 166.128C806.157 180.529 786.155 208.682 786.155 241.055C786.155 288.08 828.36 326.201 880.424 326.201C932.487 326.201 974.693 288.08 974.693 241.055C974.693 208.682 954.691 180.529 925.24 166.128V236.269H925.109C925.196 237.289 925.24 238.32 925.24 239.36C925.24 261.55 905.175 279.54 880.424 279.54C855.672 279.54 835.607 261.55 835.607 239.36C835.607 238.32 835.651 237.289 835.738 236.269H835.607V166.128Z" fill="#3FDDFA"/>
<rect x="925.24" y="100.275" width="49.4526" height="135.995" fill="#3FDDFA"/>
<rect x="375.08" y="100.275" width="43.271" height="222.537" fill="#3FDDFA"/>
<rect x="520.347" y="100.275" width="46.3618" height="108.178" fill="#3FDDFA"/>
<path d="M520.347 158.999H566.709V267.177C546.156 257.212 529.903 240.148 520.949 219.136L520.347 217.724V158.999Z" fill="#3FDDFA"/>
<rect width="43.271" height="49.4526" transform="matrix(1 0 0 -1 1245.68 322.811)" fill="#3FDDFA"/>
<path d="M1245.68 291.904H1288.95V168.272C1269.74 179.679 1255.18 197.507 1247.83 218.608L1245.68 224.79V291.904Z" fill="#3FDDFA"/>
<rect x="653.251" y="100.275" width="49.4526" height="222.537" fill="#3FDDFA"/>
<rect x="1061.23" y="100.275" width="43.271" height="222.537" fill="#3FDDFA"/>
<path d="M1078.23 100.275L1113.78 100.275L1175.59 236.269L1175.59 298.085L1160.14 298.085L1078.23 100.275Z" fill="#3FDDFA"/>
<path d="M1285.86 100.275L1244.14 100.275L1174.59 236.27L1174.59 298.085L1190.05 298.085L1285.86 100.275Z" fill="#3FDDFA"/>
<path d="M375.08 104.911L418.351 100.274L566.709 322.811L514.166 322.811L375.08 104.911Z" fill="#3FDDFA"/>
<rect x="1041.84" y="379.138" width="46.0911" height="5.542" rx="2.771" fill="#3FDDFA"/>
<rect x="1041.84" y="433.866" width="46.0911" height="5.542" rx="2.771" fill="#3FDDFA"/>
<rect x="1041.84" y="406.155" width="46.0911" height="5.542" rx="2.771" fill="#3FDDFA"/>
<path fill-rule="evenodd" clip-rule="evenodd" d="M422.956 439.407C430.583 439.375 437.642 437.271 443.408 433.715C443.409 433.715 443.409 433.714 443.41 433.714L439.796 429.402C434.96 432.672 428.931 434.612 422.393 434.612C414.67 434.612 407.656 431.904 402.482 427.495C396.713 422.834 393.097 416.14 393.097 408.702C393.097 394.619 406.063 383.202 422.057 383.202C423.478 383.202 424.875 383.292 426.241 383.466C431.34 384.073 436.018 385.868 439.911 388.529L443.422 384.473C441.138 382.942 438.665 381.663 436.064 380.658C431.962 379.231 427.479 378.445 422.782 378.445C403.387 378.445 387.63 391.847 387.348 408.472C387.435 414.018 389.237 419.475 392.568 424.261C395.984 429.169 400.874 433.179 406.69 435.842C411.744 438.156 417.325 439.374 422.956 439.407Z" fill="#3FDDFA"/>
<rect x="239.085" y="379.138" width="52.2366" height="5.542" rx="2.771" fill="#3FDDFA"/>
<rect x="315.904" y="379.138" width="46.0911" height="5.542" rx="2.771" fill="#3FDDFA"/>
<rect x="315.904" y="433.866" width="46.0911" height="5.542" rx="2.771" fill="#3FDDFA"/>
<rect x="315.904" y="406.155" width="46.0911" height="5.542" rx="2.771" fill="#3FDDFA"/>
<rect x="262.131" y="439.407" width="57.4982" height="6.14549" rx="3.07274" transform="rotate(-90 262.131 439.407)" fill="#3FDDFA"/>
<rect x="474.918" y="439.407" width="60.2692" height="6.14549" rx="3.07274" transform="rotate(-90 474.918 439.407)" fill="#3FDDFA"/>
<rect x="567.101" y="439.407" width="60.2692" height="6.14549" rx="3.07274" transform="rotate(-90 567.101 439.407)" fill="#3FDDFA"/>
<rect width="77.8323" height="5.91887" rx="2.95944" transform="matrix(0.661567 0.749886 -0.812511 0.582946 571.142 378.445)" fill="#3FDDFA"/>
<rect x="615.497" y="439.407" width="60.2692" height="6.14549" rx="3.07274" transform="rotate(-90 615.497 439.407)" fill="#3FDDFA"/>
<rect x="750.697" y="439.407" width="60.2692" height="6.14549" rx="3.07274" transform="rotate(-90 750.697 439.407)" fill="#3FDDFA"/>
<rect x="1001.13" y="439.407" width="60.2692" height="6.14549" rx="3.07274" transform="rotate(-90 1001.13 439.407)" fill="#3FDDFA"/>
<rect x="958.107" y="434.558" width="25.6317" height="6.14549" rx="3.07274" transform="rotate(-90 958.107 434.558)" fill="#3FDDFA"/>
<rect x="474.918" y="406.155" width="55.3094" height="5.542" rx="2.771" fill="#3FDDFA"/>
<rect x="750.697" y="433.866" width="44.5548" height="5.542" rx="2.771" fill="#3FDDFA"/>
<rect x="524.083" y="439.407" width="60.2692" height="6.14549" rx="3.07274" transform="rotate(-90 524.083 439.407)" fill="#3FDDFA"/>
<ellipse cx="441.31" cy="386.239" rx="2.8807" ry="2.59781" fill="#3FDDFA"/>
<ellipse cx="441.426" cy="431.683" rx="2.99592" ry="2.70172" fill="#3FDDFA"/>
<path fill-rule="evenodd" clip-rule="evenodd" d="M942.2 440.101C949.846 440.078 956.922 437.971 962.7 434.408L959.086 430.096C954.251 433.366 948.221 435.306 941.684 435.306C933.957 435.306 926.94 432.596 921.765 428.183C916.001 423.522 912.387 416.83 912.387 409.396C912.387 395.313 925.353 383.896 941.347 383.896C942.781 383.896 944.19 383.988 945.568 384.165C950.653 384.775 955.318 386.568 959.202 389.223L962.713 385.167C960.427 383.635 957.953 382.356 955.35 381.35C951.249 379.924 946.767 379.139 942.072 379.139C922.686 379.139 906.937 392.527 906.638 409.139C906.719 414.695 908.522 420.161 911.858 424.955C915.275 429.864 920.164 433.873 925.98 436.536C931.021 438.844 936.585 440.061 942.2 440.101Z" fill="#3FDDFA"/>
<ellipse cx="960.6" cy="386.932" rx="2.8807" ry="2.59781" fill="#3FDDFA"/>
<ellipse cx="960.715" cy="432.376" rx="2.99592" ry="2.70172" fill="#3FDDFA"/>
<path fill-rule="evenodd" clip-rule="evenodd" d="M686.169 439.407C704.837 439.407 719.969 425.761 719.969 408.926C719.969 392.092 704.837 378.445 686.169 378.445C667.502 378.445 652.369 392.092 652.369 408.926C652.369 425.761 667.502 439.407 686.169 439.407ZM686.554 433.865C702.039 433.865 714.592 422.544 714.592 408.579C714.592 394.615 702.039 383.294 686.554 383.294C671.068 383.294 658.515 394.615 658.515 408.579C658.515 422.544 671.068 433.865 686.554 433.865Z" fill="#3FDDFA"/>
<path fill-rule="evenodd" clip-rule="evenodd" d="M847.489 439.407C866.156 439.407 881.289 425.761 881.289 408.926C881.289 392.092 866.156 378.445 847.489 378.445C828.821 378.445 813.688 392.092 813.688 408.926C813.688 425.761 828.821 439.407 847.489 439.407ZM847.873 433.865C863.358 433.865 875.911 422.544 875.911 408.579C875.911 394.615 863.358 383.294 847.873 383.294C832.387 383.294 819.834 394.615 819.834 408.579C819.834 422.544 832.387 433.865 847.873 433.865Z" fill="#3FDDFA"/>
<path d="M1112.7 430.742C1113.25 429.688 1114.53 429.255 1115.6 429.763L1118.71 431.236L1124.13 433.279L1127.62 434.3L1131.88 434.981L1136.14 435.322H1139.26C1140.27 435.322 1141.28 435.248 1142.29 435.101L1142.7 435.04C1144.51 434.775 1146.27 434.239 1147.91 433.449L1148.27 433.276C1149.21 432.825 1150.1 432.274 1150.92 431.632L1151.64 431.072C1152.65 430.281 1153.5 429.299 1154.13 428.182L1154.19 428.082C1154.54 427.463 1154.82 426.803 1155.01 426.117C1155.33 425 1155.43 423.832 1155.3 422.678L1155.29 422.64C1155.17 421.569 1154.86 420.528 1154.37 419.566L1154.18 419.19C1153.77 418.372 1153.23 417.622 1152.59 416.966C1151.7 416.047 1150.62 415.331 1149.42 414.864L1147.75 414.21L1143.88 413.189L1139.23 412.508L1134.59 411.486L1130.33 410.465L1127.62 409.443C1125.81 408.764 1124.07 407.932 1122.41 406.957L1121.42 406.379L1119.33 404.803C1118.92 404.492 1118.53 404.152 1118.17 403.786C1116.75 402.364 1115.76 400.58 1115.29 398.629L1115.23 398.377L1115.03 396.583C1114.91 395.4 1114.93 394.206 1115.09 393.028L1115.13 392.802C1115.45 390.54 1116.34 388.398 1117.72 386.578C1118.88 385.041 1120.37 383.774 1122.06 382.861L1123.29 382.202C1125.38 381.077 1127.66 380.337 1130.02 380.019L1132.81 379.64C1135.28 379.307 1137.77 379.234 1140.26 379.424L1141 379.481C1143.94 379.706 1146.86 380.238 1149.69 381.07L1150.07 381.181L1155.01 383.208C1155.56 383.435 1155.99 383.888 1156.19 384.452C1156.73 385.998 1155.37 387.538 1153.77 387.186L1152.78 386.97L1149.69 385.949L1147.17 385.097C1144.99 384.307 1142.7 383.841 1140.38 383.713L1137.68 383.565H1135.71C1134.45 383.565 1133.19 383.687 1131.95 383.93C1130.87 384.14 1129.81 384.44 1128.79 384.827L1127.62 385.267C1125.82 386.172 1124.14 387.303 1122.63 388.633L1122.58 388.673L1121.54 389.748C1120.7 390.607 1120.09 391.66 1119.76 392.813C1119.58 393.454 1119.49 394.119 1119.49 394.786V395.622C1119.49 396.655 1119.68 397.681 1120.04 398.647C1120.44 399.705 1121.06 400.678 1121.83 401.5C1122.33 402.024 1122.89 402.487 1123.51 402.871L1125.29 403.995L1128.01 405.357L1131.1 406.719L1134.59 407.741L1139.23 408.762L1143.88 409.443L1148.14 410.124L1149.53 410.493C1151.17 410.925 1152.71 411.652 1154.09 412.641L1154.19 412.713C1155.56 413.702 1156.73 414.946 1157.64 416.378C1158.01 416.975 1158.34 417.601 1158.62 418.251L1158.91 418.929C1159.21 419.641 1159.45 420.378 1159.62 421.133C1159.96 422.635 1160.04 424.186 1159.83 425.713L1159.81 425.88C1159.52 428.056 1158.7 430.127 1157.43 431.917L1157.36 432C1155.87 433.747 1154.08 435.219 1152.09 436.348C1150.49 437.248 1148.78 437.922 1147.01 438.348L1145.43 438.727L1145.37 438.735C1142.57 439.183 1139.74 439.408 1136.91 439.408H1136.39C1133.9 439.408 1131.42 439.18 1128.97 438.727L1125.29 438.046L1122.2 437.194C1120.14 436.628 1118.12 435.911 1116.16 435.05L1115.23 434.641L1113.55 433.654C1112.54 433.062 1112.17 431.782 1112.7 430.742Z" fill="#3FDDFA"/>
</g>
<defs>
<filter id="filter0_f_58_44073" x="0" y="0.274414" width="1388.95" height="539.826" filterUnits="userSpaceOnUse" color-interpolation-filters="sRGB">
<feFlood flood-opacity="0" result="BackgroundImageFix"/>
<feBlend mode="normal" in="SourceGraphic" in2="BackgroundImageFix" result="shape"/>
<feGaussianBlur stdDeviation="50" result="effect1_foregroundBlur_58_44073"/>
</filter>
</defs>
</svg>
