<svg width="1211" height="360" viewBox="0 0 1211 360" fill="none" xmlns="http://www.w3.org/2000/svg">
<rect y="19.2747" width="49.4526" height="135.995" fill="#3FDDFA"/>
<path fill-rule="evenodd" clip-rule="evenodd" d="M49.4527 85.1278C20.0021 99.529 0 127.682 0 160.055C0 207.08 42.2057 245.201 94.269 245.201C146.332 245.201 188.538 207.08 188.538 160.055C188.538 127.682 168.536 99.5291 139.086 85.1279V155.269H138.955C139.041 156.289 139.086 157.32 139.086 158.36C139.086 180.551 119.021 198.54 94.2691 198.54C69.5177 198.54 49.4527 180.551 49.4527 158.36C49.4527 157.32 49.4968 156.289 49.5833 155.269H49.4527V85.1278Z" fill="#3FDDFA"/>
<rect x="139.085" y="19.2747" width="49.4526" height="135.995" fill="#3FDDFA"/>
<rect x="686.155" y="19.2747" width="49.4526" height="135.995" fill="#3FDDFA"/>
<path fill-rule="evenodd" clip-rule="evenodd" d="M735.607 85.1278C706.157 99.529 686.155 127.682 686.155 160.055C686.155 207.08 728.36 245.201 780.424 245.201C832.487 245.201 874.693 207.08 874.693 160.055C874.693 127.682 854.691 99.5291 825.24 85.1279V155.269H825.109C825.196 156.289 825.24 157.32 825.24 158.36C825.24 180.55 805.175 198.54 780.424 198.54C755.672 198.54 735.607 180.55 735.607 158.36C735.607 157.32 735.651 156.289 735.738 155.269H735.607V85.1278Z" fill="#3FDDFA"/>
<rect x="825.24" y="19.2747" width="49.4526" height="135.995" fill="#3FDDFA"/>
<rect x="275.08" y="19.2747" width="43.271" height="222.537" fill="#3FDDFA"/>
<rect x="420.347" y="19.2747" width="46.3618" height="108.178" fill="#3FDDFA"/>
<path d="M420.347 77.9994H466.709V186.177C446.156 176.212 429.903 159.148 420.949 138.136L420.347 136.724V77.9994Z" fill="#3FDDFA"/>
<rect width="43.271" height="49.4526" transform="matrix(1 0 0 -1 1145.68 241.811)" fill="#3FDDFA"/>
<path d="M1145.68 210.904H1188.95V87.2723C1169.74 98.6785 1155.18 116.507 1147.83 137.608L1145.68 143.79V210.904Z" fill="#3FDDFA"/>
<rect x="553.251" y="19.2747" width="49.4526" height="222.537" fill="#3FDDFA"/>
<rect x="961.235" y="19.2747" width="43.271" height="222.537" fill="#3FDDFA"/>
<path d="M978.234 19.2747L1013.78 19.2747L1075.59 155.269L1075.59 217.085L1060.14 217.085L978.234 19.2747Z" fill="#3FDDFA"/>
<path d="M1185.86 19.2749L1144.14 19.2749L1074.59 155.27L1074.59 217.085L1090.05 217.085L1185.86 19.2749Z" fill="#3FDDFA"/>
<path d="M275.08 23.9106L318.351 19.2745L466.709 241.811L414.166 241.811L275.08 23.9106Z" fill="#3FDDFA"/>
<rect x="941.839" y="298.138" width="46.0911" height="5.542" rx="2.771" fill="#3FDDFA"/>
<rect x="941.839" y="352.866" width="46.0911" height="5.542" rx="2.771" fill="#3FDDFA"/>
<rect x="941.839" y="325.155" width="46.0911" height="5.542" rx="2.771" fill="#3FDDFA"/>
<path fill-rule="evenodd" clip-rule="evenodd" d="M322.956 358.407C330.583 358.375 337.642 356.271 343.408 352.715C343.409 352.715 343.409 352.714 343.41 352.714L339.796 348.402C334.96 351.672 328.931 353.612 322.393 353.612C314.67 353.612 307.656 350.904 302.482 346.495C296.713 341.834 293.097 335.14 293.097 327.702C293.097 313.619 306.063 302.202 322.057 302.202C323.478 302.202 324.875 302.292 326.241 302.466C331.34 303.073 336.018 304.868 339.911 307.529L343.422 303.473C341.138 301.942 338.665 300.663 336.064 299.658C331.962 298.231 327.479 297.445 322.782 297.445C303.387 297.445 287.63 310.847 287.348 327.472C287.435 333.018 289.237 338.475 292.568 343.261C295.984 348.169 300.874 352.179 306.69 354.842C311.744 357.156 317.325 358.374 322.956 358.407Z" fill="#3FDDFA"/>
<rect x="139.085" y="298.138" width="52.2366" height="5.542" rx="2.771" fill="#3FDDFA"/>
<rect x="215.904" y="298.138" width="46.0911" height="5.542" rx="2.771" fill="#3FDDFA"/>
<rect x="215.904" y="352.866" width="46.0911" height="5.542" rx="2.771" fill="#3FDDFA"/>
<rect x="215.904" y="325.155" width="46.0911" height="5.542" rx="2.771" fill="#3FDDFA"/>
<rect x="162.131" y="358.407" width="57.4982" height="6.14549" rx="3.07274" transform="rotate(-90 162.131 358.407)" fill="#3FDDFA"/>
<rect x="374.918" y="358.407" width="60.2692" height="6.14549" rx="3.07274" transform="rotate(-90 374.918 358.407)" fill="#3FDDFA"/>
<rect x="467.101" y="358.407" width="60.2692" height="6.14549" rx="3.07274" transform="rotate(-90 467.101 358.407)" fill="#3FDDFA"/>
<rect width="77.8323" height="5.91887" rx="2.95944" transform="matrix(0.661567 0.749886 -0.812511 0.582946 471.142 297.445)" fill="#3FDDFA"/>
<rect x="515.497" y="358.407" width="60.2692" height="6.14549" rx="3.07274" transform="rotate(-90 515.497 358.407)" fill="#3FDDFA"/>
<rect x="650.697" y="358.407" width="60.2692" height="6.14549" rx="3.07274" transform="rotate(-90 650.697 358.407)" fill="#3FDDFA"/>
<rect x="901.125" y="358.407" width="60.2692" height="6.14549" rx="3.07274" transform="rotate(-90 901.125 358.407)" fill="#3FDDFA"/>
<rect x="858.107" y="353.558" width="25.6317" height="6.14549" rx="3.07274" transform="rotate(-90 858.107 353.558)" fill="#3FDDFA"/>
<rect x="374.918" y="325.155" width="55.3094" height="5.542" rx="2.771" fill="#3FDDFA"/>
<rect x="650.697" y="352.866" width="44.5548" height="5.542" rx="2.771" fill="#3FDDFA"/>
<rect x="424.083" y="358.407" width="60.2692" height="6.14549" rx="3.07274" transform="rotate(-90 424.083 358.407)" fill="#3FDDFA"/>
<ellipse cx="341.31" cy="305.239" rx="2.8807" ry="2.59781" fill="#3FDDFA"/>
<ellipse cx="341.426" cy="350.683" rx="2.99592" ry="2.70172" fill="#3FDDFA"/>
<path fill-rule="evenodd" clip-rule="evenodd" d="M842.2 359.101C849.846 359.078 856.922 356.971 862.7 353.408L859.086 349.096C854.251 352.366 848.221 354.306 841.684 354.306C833.957 354.306 826.94 351.596 821.765 347.183C816.001 342.522 812.387 335.83 812.387 328.396C812.387 314.313 825.353 302.896 841.347 302.896C842.781 302.896 844.19 302.988 845.568 303.165C850.653 303.775 855.318 305.568 859.202 308.223L862.713 304.167C860.427 302.635 857.953 301.356 855.35 300.35C851.249 298.924 846.767 298.139 842.072 298.139C822.686 298.139 806.937 311.527 806.638 328.139C806.719 333.695 808.522 339.161 811.858 343.955C815.275 348.864 820.164 352.873 825.98 355.536C831.021 357.844 836.585 359.061 842.2 359.101Z" fill="#3FDDFA"/>
<ellipse cx="860.6" cy="305.932" rx="2.8807" ry="2.59781" fill="#3FDDFA"/>
<ellipse cx="860.715" cy="351.376" rx="2.99592" ry="2.70172" fill="#3FDDFA"/>
<path fill-rule="evenodd" clip-rule="evenodd" d="M586.169 358.407C604.837 358.407 619.969 344.761 619.969 327.926C619.969 311.092 604.837 297.445 586.169 297.445C567.502 297.445 552.369 311.092 552.369 327.926C552.369 344.761 567.502 358.407 586.169 358.407ZM586.554 352.865C602.039 352.865 614.592 341.544 614.592 327.579C614.592 313.615 602.039 302.294 586.554 302.294C571.068 302.294 558.515 313.615 558.515 327.579C558.515 341.544 571.068 352.865 586.554 352.865Z" fill="#3FDDFA"/>
<path fill-rule="evenodd" clip-rule="evenodd" d="M747.489 358.407C766.156 358.407 781.289 344.761 781.289 327.926C781.289 311.092 766.156 297.445 747.489 297.445C728.821 297.445 713.688 311.092 713.688 327.926C713.688 344.761 728.821 358.407 747.489 358.407ZM747.873 352.865C763.358 352.865 775.911 341.544 775.911 327.579C775.911 313.615 763.358 302.294 747.873 302.294C732.387 302.294 719.834 313.615 719.834 327.579C719.834 341.544 732.387 352.865 747.873 352.865Z" fill="#3FDDFA"/>
<path d="M1012.7 349.742C1013.25 348.688 1014.53 348.255 1015.6 348.763L1018.71 350.236L1024.13 352.279L1027.62 353.3L1031.88 353.981L1036.14 354.322H1039.26C1040.27 354.322 1041.28 354.248 1042.29 354.101L1042.7 354.04C1044.51 353.775 1046.27 353.239 1047.91 352.449L1048.27 352.276C1049.21 351.825 1050.1 351.274 1050.92 350.632L1051.64 350.072C1052.65 349.281 1053.5 348.299 1054.13 347.182L1054.19 347.082C1054.54 346.463 1054.82 345.803 1055.01 345.117C1055.33 344 1055.43 342.832 1055.3 341.678L1055.29 341.64C1055.17 340.569 1054.86 339.528 1054.37 338.566L1054.18 338.19C1053.77 337.372 1053.23 336.622 1052.59 335.966C1051.7 335.047 1050.62 334.331 1049.42 333.864L1047.75 333.21L1043.88 332.189L1039.23 331.508L1034.59 330.486L1030.33 329.465L1027.62 328.443C1025.81 327.764 1024.07 326.932 1022.41 325.957L1021.42 325.379L1019.33 323.803C1018.92 323.492 1018.53 323.152 1018.17 322.786C1016.75 321.364 1015.76 319.58 1015.29 317.629L1015.23 317.377L1015.03 315.583C1014.91 314.4 1014.93 313.206 1015.09 312.028L1015.13 311.802C1015.45 309.54 1016.34 307.398 1017.72 305.578C1018.88 304.041 1020.37 302.774 1022.06 301.861L1023.29 301.202C1025.38 300.077 1027.66 299.337 1030.02 299.019L1032.81 298.64C1035.28 298.307 1037.77 298.234 1040.26 298.424L1041 298.481C1043.94 298.706 1046.86 299.238 1049.69 300.07L1050.07 300.181L1055.01 302.208C1055.56 302.435 1055.99 302.888 1056.19 303.452C1056.73 304.998 1055.37 306.538 1053.77 306.186L1052.78 305.97L1049.69 304.949L1047.17 304.097C1044.99 303.307 1042.7 302.841 1040.38 302.713L1037.68 302.565H1035.71C1034.45 302.565 1033.19 302.687 1031.95 302.93C1030.87 303.14 1029.81 303.44 1028.79 303.827L1027.62 304.267C1025.82 305.172 1024.14 306.303 1022.63 307.633L1022.58 307.673L1021.54 308.748C1020.7 309.607 1020.09 310.66 1019.76 311.813C1019.58 312.454 1019.49 313.119 1019.49 313.786V314.622C1019.49 315.655 1019.68 316.681 1020.04 317.647C1020.44 318.705 1021.06 319.678 1021.83 320.5C1022.33 321.024 1022.89 321.487 1023.51 321.871L1025.29 322.995L1028.01 324.357L1031.1 325.719L1034.59 326.741L1039.23 327.762L1043.88 328.443L1048.14 329.124L1049.53 329.493C1051.17 329.925 1052.71 330.652 1054.09 331.641L1054.19 331.713C1055.56 332.702 1056.73 333.946 1057.64 335.378C1058.01 335.975 1058.34 336.601 1058.62 337.251L1058.91 337.929C1059.21 338.641 1059.45 339.378 1059.62 340.133C1059.96 341.635 1060.04 343.186 1059.83 344.713L1059.81 344.88C1059.52 347.056 1058.7 349.127 1057.43 350.917L1057.36 351C1055.87 352.747 1054.08 354.219 1052.09 355.348C1050.49 356.248 1048.78 356.922 1047.01 357.348L1045.43 357.727L1045.37 357.735C1042.57 358.183 1039.74 358.408 1036.91 358.408H1036.39C1033.9 358.408 1031.42 358.18 1028.97 357.727L1025.29 357.046L1022.2 356.194C1020.14 355.628 1018.12 354.911 1016.16 354.05L1015.23 353.641L1013.55 352.654C1012.54 352.062 1012.17 350.782 1012.7 349.742Z" fill="#3FDDFA"/>
</svg>
